<?xml version="1.0" encoding="utf-8"?>
<!-- Generator: Adobe Illustrator 19.2.0, SVG Export Plug-In . SVG Version: 6.00 Build 0)  -->
<svg xmlns="http://www.w3.org/2000/svg" xmlns:xlink="http://www.w3.org/1999/xlink" version="1.1" id="housefan" x="0px" y="0px" viewBox="0 0 184.3854 232" enable-background="new 0 0 184.3854 232" xml:space="preserve" width="512" height="512">
<g>
	<rect x="52" y="216" fill="#5CB0FF" width="60" height="8"/>
	<path fill="#D0E8FF" d="M92.2499,30.25c0-3.4453-2.8046-6.25-6.2499-6.25s-6.2501,2.8047-6.2501,6.25   c0,5.6836,3.2345,26.5312,6.2501,34.2265C89.0156,56.7812,92.2499,35.9336,92.2499,30.25z"/>
	<path fill="#D0E8FF" d="M107.7617,91.707c6.8203,4.668,26.4062,12.5117,31.9414,13.7891c1.625,0.375,3.3086,0.0938,4.7227-0.7852   c1.418-0.8867,2.4023-2.2695,2.7773-3.8945c0.7773-3.3594-1.3242-6.7266-4.6836-7.5   C136.9805,92.0352,115.9414,90.5,107.7617,91.707z"/>
	<path fill="#D0E8FF" d="M136.3516,52.1055c0.1758-1.6641-0.3086-3.293-1.3594-4.5859c-1.2344-1.5234-3.043-2.3164-4.8672-2.3164   c-1.3828,0-2.7734,0.457-3.9297,1.3906c-4.543,3.6797-18.6914,19.2383-22.6992,26.4297   c7.8672-2.4297,26.0273-13.0352,30.5742-16.7148C135.3672,55.2578,136.1758,53.7656,136.3516,52.1055z"/>
	<path fill="#D0E8FF" d="M95.5742,106.9141c0.6094,8.2305,6.8438,28.2734,9.4062,33.5234c1.5117,3.0977,5.2656,4.3906,8.3594,2.875   c3.0977-1.5078,4.3867-5.2578,2.875-8.3555C113.7266,129.8438,101.6523,112.4883,95.5742,106.9141z"/>
	<path fill="#D0E8FF" d="M37.9297,56.3086c4.5469,3.6797,22.7109,14.2852,30.5781,16.7148   c-4.0117-7.1914-18.1602-22.75-22.707-26.4297c-1.1523-0.9336-2.543-1.3906-3.9258-1.3906c-1.8242,0-3.6328,0.793-4.8711,2.3164   c-1.0469,1.293-1.5312,2.9219-1.3555,4.5859C35.8242,53.7656,36.6328,55.2578,37.9297,56.3086z"/>
	<path fill="#D0E8FF" d="M55.9102,91.2695c-9.6016,0-22.3086,1.0938-26.4297,2.0469c-3.3594,0.7734-5.4609,4.1406-4.6836,7.5   c0.375,1.625,1.3594,3.0078,2.7773,3.8945c1.4141,0.8789,3.0898,1.1602,4.7188,0.7852c5.5391-1.2773,25.125-9.1211,31.9453-13.7891   C62.1445,91.3984,59.2109,91.2695,55.9102,91.2695z"/>
	<path fill="#FFFFFF" d="M164,86c0-43.0078-34.9922-78-78-78S8,42.9922,8,86s34.9922,78,78,78S164,129.0078,164,86z    M116.8477,150.5039c-2.0039,0.9766-4.1289,1.4414-6.2227,1.4414c-5.2812,0-10.3672-2.9453-12.8359-8   c-0.1953-0.3984-17.0547-41.0039-6.625-46.0898c0,0,0,0,0-0.0039c10.4648-5.0586,32.0508,33.2031,32.2461,33.5977   C126.8516,138.5156,123.9062,147.0625,116.8477,150.5039z M155,102.6133c-0.8555,3.7109-3.1055,6.8633-6.3359,8.8828   c-2.293,1.4297-4.8828,2.168-7.5195,2.168c-1.0781,0-2.1641-0.125-3.2422-0.3711c-3.0508-0.707-12.8164-4.1602-21.7773-8.1875   c-14.2305-6.3945-19.332-10.7852-18.207-15.668s7.6055-6.5781,23.2344-6.1055c9.8203,0.3086,20.1133,1.4844,23.1641,2.1875   C151.9727,87.2891,156.7656,94.957,155,102.6133z M121.1641,40.375c6.1016-4.9375,15.0977-3.9961,20.043,2.1055   c4.9492,6.1094,4.0039,15.0977-2.1016,20.0469c-0.2969,0.2383-26.1953,18.7461-38.4375,18.7461   c-2.1562,0-3.8906-0.5742-4.9844-1.9219c0-0.0039,0-0.0039,0-0.0039C88.3789,70.3203,120.8164,40.6562,121.1641,40.375z M86,16   c7.8594,0,14.2499,6.3906,14.2499,14.25c0,0.4414-2.6366,44.3281-14.2499,44.3281S71.7499,30.6914,71.7499,30.25   C71.7499,22.3906,78.1406,16,86,16z M30.7891,42.4844c4.9531-6.1055,13.9414-7.0469,20.0469-2.1094   c2.4375,1.9766,9.6992,9.3594,15.9883,16.9062c9.9844,11.9844,12.6484,18.1719,9.4922,22.0703   c-1.0938,1.3477-2.8281,1.9219-4.9844,1.9219c-12.2422,0-38.1406-18.5078-38.4336-18.7461   C26.7891,57.5781,25.8438,48.5898,30.7891,42.4844z M30.8555,113.6641c-2.6367,0-5.2266-0.7383-7.5195-2.168   c-3.2305-2.0195-5.4805-5.1719-6.3359-8.8828c-1.7656-7.6562,3.0273-15.3242,10.6836-17.0938   c3.0508-0.7031,13.3438-1.8789,23.1641-2.1875c15.5938-0.4609,22.1094,1.2227,23.2344,6.1055s-3.9766,9.2734-18.207,15.668   c-8.9609,4.0273-18.7266,7.4805-21.7812,8.1875C33.0195,113.5391,31.9336,113.6641,30.8555,113.6641z M74.2148,143.9453   c-2.4727,5.0547-7.5586,8-12.8398,8c-2.0938,0-4.2148-0.4609-6.2227-1.4375c-7.0586-3.4453-10.0039-11.9922-6.5625-19.0586   c0.1953-0.3945,21.8008-38.668,32.2461-33.5977c0,0.0039,0,0.0039,0,0.0039C91.2656,102.9414,74.4062,143.5469,74.2148,143.9453z    M76.6328,88c0-4.4102,3.5898-8,8-8s8,3.5898,8,8s-3.5898,8-8,8S76.6328,92.4102,76.6328,88z"/>
	<path fill="#D0E8FF" d="M55.7852,134.957c-1.5117,3.0977-0.2227,6.8477,2.875,8.3594c3.0977,1.5078,6.8477,0.2188,8.3633-2.8789   c2.5586-5.25,8.793-25.293,9.4023-33.5234C70.3477,112.4883,58.2734,129.8438,55.7852,134.957z"/>
	<path fill="#1C71DA" d="M95.6836,79.3477c0,0,0,0,0,0.0039c1.0938,1.3477,2.8281,1.9219,4.9844,1.9219   c12.2422,0,38.1406-18.5078,38.4375-18.7461c6.1055-4.9492,7.0508-13.9375,2.1016-20.0469   c-4.9453-6.1016-13.9414-7.043-20.043-2.1055C120.8164,40.6562,88.3789,70.3203,95.6836,79.3477z M126.1953,46.5938   c1.1562-0.9336,2.5469-1.3906,3.9297-1.3906c1.8242,0,3.6328,0.793,4.8672,2.3164c1.0508,1.293,1.5352,2.9219,1.3594,4.5859   c-0.1758,1.6602-0.9844,3.1523-2.2812,4.2031c-4.5469,3.6797-22.707,14.2852-30.5742,16.7148   C107.5039,65.832,121.6523,50.2734,126.1953,46.5938z"/>
	<path fill="#1C71DA" d="M86,74.5781c11.6133,0,14.2499-43.8867,14.2499-44.3281C100.2499,22.3906,93.8594,16,86,16   s-14.2501,6.3906-14.2501,14.25C71.7499,30.6914,74.3867,74.5781,86,74.5781z M86,24c3.4453,0,6.2499,2.8047,6.2499,6.25   c0,5.6836-3.2343,26.5312-6.2499,34.2265c-3.0156-7.6953-6.2501-28.543-6.2501-34.2265C79.7499,26.8047,82.5547,24,86,24z"/>
	<path fill="#1C71DA" d="M74.082,89.4375c-1.125-4.8828-7.6406-6.5664-23.2344-6.1055c-9.8203,0.3086-20.1133,1.4844-23.1641,2.1875   C20.0273,87.2891,15.2344,94.957,17,102.6133c0.8555,3.7109,3.1055,6.8633,6.3359,8.8828c2.293,1.4297,4.8828,2.168,7.5195,2.168   c1.0781,0,2.1641-0.125,3.2383-0.3711c3.0547-0.707,12.8203-4.1602,21.7812-8.1875C70.1055,98.7109,75.207,94.3203,74.082,89.4375z    M32.293,105.4961c-1.6289,0.375-3.3047,0.0938-4.7188-0.7852c-1.418-0.8867-2.4023-2.2695-2.7773-3.8945   c-0.7773-3.3594,1.3242-6.7266,4.6836-7.5c4.1211-0.9531,16.8281-2.0469,26.4297-2.0469c3.3008,0,6.2344,0.1289,8.3281,0.4375   C57.418,96.375,37.832,104.2188,32.293,105.4961z"/>
	<path fill="#1C71DA" d="M80.8359,97.8555c0,0,0,0,0-0.0039c-10.4453-5.0703-32.0508,33.2031-32.2461,33.5977   c-3.4414,7.0664-0.4961,15.6133,6.5625,19.0586c2.0078,0.9766,4.1289,1.4375,6.2227,1.4375c5.2812,0,10.3672-2.9453,12.8398-8   C74.4062,143.5469,91.2656,102.9414,80.8359,97.8555z M67.0234,140.4375c-1.5156,3.0977-5.2656,4.3867-8.3633,2.8789   c-3.0977-1.5117-4.3867-5.2617-2.875-8.3594c2.4883-5.1133,14.5625-22.4688,20.6406-28.043   C75.8164,115.1445,69.582,135.1875,67.0234,140.4375z"/>
	<path fill="#1C71DA" d="M121.1523,83.332c-15.6289-0.4727-22.1094,1.2227-23.2344,6.1055s3.9766,9.2734,18.207,15.668   c8.9609,4.0273,18.7266,7.4805,21.7773,8.1875c1.0781,0.2461,2.1641,0.3711,3.2422,0.3711c2.6367,0,5.2266-0.7383,7.5195-2.168   c3.2305-2.0195,5.4805-5.1719,6.3359-8.8828c1.7656-7.6562-3.0273-15.3242-10.6836-17.0938   C141.2656,84.8164,130.9727,83.6406,121.1523,83.332z M147.2031,100.8164c-0.375,1.625-1.3594,3.0078-2.7773,3.8945   c-1.4141,0.8789-3.0977,1.1602-4.7227,0.7852c-5.5352-1.2773-25.1211-9.1211-31.9414-13.7891   c8.1797-1.207,29.2188,0.3281,34.7578,1.6094C145.8789,94.0898,147.9805,97.457,147.2031,100.8164z"/>
	<path fill="#1C71DA" d="M32.8984,62.5273c0.293,0.2383,26.1914,18.7461,38.4336,18.7461c2.1562,0,3.8906-0.5742,4.9844-1.9219   c3.1562-3.8984,0.4922-10.0859-9.4922-22.0703c-6.2891-7.5469-13.5508-14.9297-15.9883-16.9062   c-6.1055-4.9375-15.0938-3.9961-20.0469,2.1094C25.8438,48.5898,26.7891,57.5781,32.8984,62.5273z M37.0039,47.5195   c1.2383-1.5234,3.0469-2.3164,4.8711-2.3164c1.3828,0,2.7734,0.457,3.9258,1.3906c4.5469,3.6797,18.6953,19.2383,22.707,26.4297   c-7.8672-2.4297-26.0312-13.0352-30.5781-16.7148c-1.2969-1.0508-2.1055-2.543-2.2812-4.2031   C35.4727,50.4414,35.957,48.8125,37.0039,47.5195z"/>
	<path fill="#1C71DA" d="M91.1641,97.8516c0,0.0039,0,0.0039,0,0.0039c-10.4297,5.0859,6.4297,45.6914,6.625,46.0898   c2.4688,5.0547,7.5547,8,12.8359,8c2.0938,0,4.2188-0.4648,6.2227-1.4414c7.0586-3.4414,10.0039-11.9883,6.5625-19.0547   C123.2148,131.0547,101.6289,92.793,91.1641,97.8516z M113.3398,143.3125c-3.0938,1.5156-6.8477,0.2227-8.3594-2.875   c-2.5625-5.25-8.7969-25.293-9.4062-33.5234c6.0781,5.5742,18.1523,22.9297,20.6406,28.043   C117.7266,138.0547,116.4375,141.8047,113.3398,143.3125z"/>
	<path fill="#1C71DA" d="M172,86c0-47.4219-38.5781-86-86-86S0,38.5781,0,86c0,45.3967,35.3784,82.5938,80,85.696V208H48   c-2.2109,0-4,1.7891-4,4v16c0,2.2109,1.7891,4,4,4h68c2.2109,0,4-1.7891,4-4v-16c0-2.2109-1.7891-4-4-4H88v-36.1013   C134.4924,170.822,172,132.7468,172,86z M112,224H52v-8h60V224z M8,86C8,42.9922,42.9922,8,86,8s78,34.9922,78,78   s-34.9922,78-78,78S8,129.0078,8,86z"/>
	<path fill="#1C71DA" d="M92.6328,88c0-4.4102-3.5898-8-8-8s-8,3.5898-8,8s3.5898,8,8,8S92.6328,92.4102,92.6328,88z"/>
</g>
<path fill="#FF5D5D" d="M164.3854,22.8317c-1.0234,0-2.0479-0.3906-2.8281-1.1719c-1.5625-1.5615-1.5625-4.0947,0-5.6562  l14.1426-14.1416c1.5625-1.5625,4.0957-1.5625,5.6562,0c1.5625,1.5615,1.5625,4.0947,0,5.6562l-14.1426,14.1416  C166.4323,22.441,165.4088,22.8317,164.3854,22.8317z"/>
<path fill="#FF5D5D" d="M178.528,22.8326c-1.0234,0-2.0479-0.3906-2.8281-1.1719L161.5573,7.5182  c-1.5625-1.5615-1.5625-4.0947,0-5.6562c1.5605-1.5625,4.0957-1.5625,5.6562,0l14.1426,14.1426  c1.5625,1.5615,1.5625,4.0947,0,5.6562C180.5758,22.442,179.5514,22.8326,178.528,22.8326z"/>
<path fill="#00D40B" d="M170.3854,190.8317c-7.7197,0-14-6.2803-14-14s6.2803-14,14-14s14,6.2803,14,14  S178.1051,190.8317,170.3854,190.8317z M170.3854,170.8317c-3.3086,0-6,2.6914-6,6s2.6914,6,6,6s6-2.6914,6-6  S173.694,170.8317,170.3854,170.8317z"/>
<path fill="#FFC504" d="M19.6989,193.4596c-1.0605,0-2.0781-0.4219-2.8281-1.1719L5.5573,180.9733  c-1.5625-1.5615-1.5625-4.0947,0-5.6562l11.3135-11.3135c1.5605-1.5625,4.0957-1.5625,5.6562,0l11.3135,11.3135  c1.5625,1.5615,1.5625,4.0947,0,5.6562L22.527,192.2877C21.777,193.0377,20.7594,193.4596,19.6989,193.4596z M14.0416,178.1451  l5.6572,5.6572l5.6572-5.6572l-5.6572-5.6562L14.0416,178.1451z"/>
</svg>
